<svg width="28" height="24" viewBox="0 0 28 24" fill="none" xmlns="http://www.w3.org/2000/svg">
<path fill-rule="evenodd" clip-rule="evenodd" d="M14 22L24.4683 17.6578C24.9887 17.4626 25.3335 16.9651 25.3335 16.4093V5.924C25.3335 4.99306 24.4037 4.34869 23.532 4.67556L14 8L4.46833 4.67556C3.59666 4.34869 2.66683 4.99306 2.66683 5.924V16.4093C2.66683 16.9651 3.01159 17.4626 3.532 17.6578L14 22ZM13.3333 9.17959V20.28L4.02166 16.4174L4.00016 16.4093L4.00016 5.924L4.01464 5.92943L13.3333 9.17959ZM14.6667 20.28V9.17959L23.9857 5.92943L24.0002 5.924V16.4093L23.9787 16.4174L14.6667 20.28Z" fill="#3220E6"/>
<path d="M14.41 24C14.5796 24 14.7477 23.9676 14.9051 23.9046L27.1619 19.0019C27.6681 18.7994 28 18.3092 28 17.764V8C28 7.26362 27.403 6.66667 26.6667 6.66667V16.8612C26.6667 17.4065 26.3347 17.8967 25.8285 18.0992L14.4953 22.6325C14.1774 22.7597 13.8228 22.7597 13.5049 22.6325L2.17148 18.0992C1.66527 17.8967 1.33333 17.4065 1.33333 16.8612V6.66667C0.596954 6.66667 0 7.26362 0 8V17.764C0 18.3092 0.331935 18.7994 0.838147 19.0019L13.095 23.9046C13.2525 23.9676 13.4206 24 13.5902 24H14.41Z" fill="#3220E6"/>
<path d="M19.6196 4.55939C19.9645 4.43006 20.1421 4.04361 19.9787 3.7135C18.8897 1.51305 16.6216 0 14.0002 0C11.3787 0 9.11064 1.51305 8.02163 3.7135C7.85825 4.04361 8.03589 4.43006 8.38077 4.55939C8.72557 4.68869 9.10634 4.51136 9.2779 4.18552C10.1708 2.48963 11.9504 1.33333 14.0002 1.33333C16.0499 1.33333 17.8296 2.48963 18.7224 4.18552C18.894 4.51136 19.2748 4.68869 19.6196 4.55939Z" fill="#3220E6"/>
<path d="M17.122 5.49597C17.4669 5.36664 17.6461 4.97825 17.4611 4.65979C16.7685 3.46798 15.4779 2.66667 14.0002 2.66667C12.5224 2.66667 11.2319 3.46798 10.5393 4.65979C10.3542 4.97825 10.5334 5.36664 10.8783 5.49597C11.2231 5.62527 11.6015 5.44348 11.8124 5.14157C12.2944 4.45145 13.0945 4 14.0002 4C14.9058 4 15.706 4.45145 16.188 5.14157C16.3988 5.44348 16.7772 5.62527 17.122 5.49597Z" fill="#3220E6"/>
<path d="M14.3407 6.53896C14.8423 6.35087 15.0952 5.73654 14.6214 5.4866C14.4359 5.38873 14.2245 5.33333 14.0002 5.33333C13.7758 5.33333 13.5645 5.38873 13.3789 5.4866C12.9051 5.73654 13.1581 6.35087 13.6596 6.53896C13.8792 6.6213 14.1212 6.6213 14.3407 6.53896Z" fill="#3220E6"/>
</svg>
